<?xml version="1.0" encoding="UTF-8" standalone="no"?>
<!-- Created with Inkscape (http://www.inkscape.org/) -->

<svg
   xmlns:dc="http://purl.org/dc/elements/1.1/"
   xmlns:cc="http://creativecommons.org/ns#"
   xmlns:rdf="http://www.w3.org/1999/02/22-rdf-syntax-ns#"
   xmlns:svg="http://www.w3.org/2000/svg"
   xmlns="http://www.w3.org/2000/svg"
   xmlns:sodipodi="http://sodipodi.sourceforge.net/DTD/sodipodi-0.dtd"
   xmlns:inkscape="http://www.inkscape.org/namespaces/inkscape"
   width="37.553654mm"
   height="53.706627mm"
   viewBox="0 0 37.553654 53.706627"
   version="1.1"
   id="svg4291"
   inkscape:version="0.91+devel r"
   sodipodi:docname="cucumber.svg">
  <title
     id="title5049">Cucumber (Vegetable)</title>
  <defs
     id="defs4285" />
  <sodipodi:namedview
     id="base"
     pagecolor="#ffffff"
     bordercolor="#666666"
     borderopacity="1.0"
     inkscape:pageopacity="0.0"
     inkscape:pageshadow="2"
     inkscape:zoom="1"
     inkscape:cx="78.467531"
     inkscape:cy="89.992845"
     inkscape:document-units="mm"
     inkscape:current-layer="layer1"
     showgrid="false"
     inkscape:snap-global="false"
     fit-margin-top="0"
     fit-margin-left="0"
     fit-margin-right="0"
     fit-margin-bottom="0"
     inkscape:window-width="1855"
     inkscape:window-height="1056"
     inkscape:window-x="65"
     inkscape:window-y="24"
     inkscape:window-maximized="1" />
  <metadata
     id="metadata4288">
    <rdf:RDF>
      <cc:Work
         rdf:about="">
        <dc:format>image/svg+xml</dc:format>
        <dc:type
           rdf:resource="http://purl.org/dc/dcmitype/StillImage" />
        <dc:title>Cucumber (Vegetable)</dc:title>
        <cc:license
           rdf:resource="http://creativecommons.org/publicdomain/zero/1.0/" />
        <dc:date>2015-10-12</dc:date>
        <dc:creator>
          <cc:Agent>
            <dc:title>Devonique Scolley &amp; Martin Owens</dc:title>
          </cc:Agent>
        </dc:creator>
        <dc:rights>
          <cc:Agent>
            <dc:title>None Retained</dc:title>
          </cc:Agent>
        </dc:rights>
        <dc:publisher>
          <cc:Agent>
            <dc:title>OpenClipart.org</dc:title>
          </cc:Agent>
        </dc:publisher>
        <dc:source>https://openclipart.org/detail/229772/vector-vegetables</dc:source>
        <dc:subject>
          <rdf:Bag>
            <rdf:li>cucumber</rdf:li>
            <rdf:li>vegetable</rdf:li>
            <rdf:li>greens</rdf:li>
            <rdf:li>hearty</rdf:li>
            <rdf:li>salad</rdf:li>
            <rdf:li>ingrediant</rdf:li>
            <rdf:li>cucumis sativus</rdf:li>
            <rdf:li>pickle</rdf:li>
          </rdf:Bag>
        </dc:subject>
        <dc:description>A modified cucumber from Devonique</dc:description>
      </cc:Work>
      <cc:License
         rdf:about="http://creativecommons.org/publicdomain/zero/1.0/">
        <cc:permits
           rdf:resource="http://creativecommons.org/ns#Reproduction" />
        <cc:permits
           rdf:resource="http://creativecommons.org/ns#Distribution" />
        <cc:permits
           rdf:resource="http://creativecommons.org/ns#DerivativeWorks" />
      </cc:License>
    </rdf:RDF>
  </metadata>
  <g
     inkscape:label="Layer 1"
     inkscape:groupmode="layer"
     id="layer1"
     transform="translate(-11.722328,-112.46186)">
    <path
       sodipodi:nodetypes="sssss"
       inkscape:connector-curvature="0"
       id="path4391"
       d="m 32.274219,121.26283 c 8.378723,-15.77317 24.188776,-8.82232 13.308056,8.80342 -1.809406,2.93108 -11.87612,20.46962 -16.32175,27.56916 -9.811089,15.66804 -24.6434185,8.07982 -13.658239,-9.16857 2.644098,-4.15163 14.121607,-22.40296 16.671933,-27.20401 z"
       style="fill:#008000;fill-rule:evenodd;stroke:none;stroke-width:0.26458332px;stroke-linecap:butt;stroke-linejoin:miter;stroke-opacity:1" />
    <path
       inkscape:connector-curvature="0"
       id="path4393"
       d="m 42.09187,112.79621 c 0,0 -0.403719,0.18099 -0.55364,0.30415 -0.149921,0.12315 0.0932,1.58061 -0.406906,1.33861 -0.500104,-0.24201 -0.831014,-0.52257 -0.857779,-0.2495 -0.02677,0.27308 0.525277,0.54775 -0.01498,0.71535 -0.540253,0.16761 -0.748009,0.037 -0.911313,0.29666 -0.163303,0.25969 -0.236114,0.72124 -0.236114,0.72124 l -0.774774,0.31004 c 0,0 -0.242009,0.50011 -0.268775,0.77319 -0.02676,0.27307 0.317527,0.4171 -0.242009,0.5001 -0.559533,0.083 -0.746416,-0.54185 -0.64413,0.10229 0.102282,0.64413 0.869571,0.69176 0.348593,0.94397 -0.520983,0.25221 -1.104095,-0.54934 -1.053748,0.0621 0.05035,0.61147 0.173498,0.76139 0.173498,0.76139 0,0 -0.278966,-0.2479 -0.540253,0.16761 -0.261284,0.4155 0.304144,0.55363 -0.308922,1.18279 -0.613066,0.62916 -1.769097,0.0472 -1.785662,1.34132 -0.01656,1.29416 -0.482902,2.95779 -0.867344,3.22338 -0.38444,0.26558 -0.540255,0.1676 -0.561126,0.66181 -0.02088,0.49422 -0.288049,0.68859 -0.288049,0.68859 0,0 -0.427302,-0.70356 -0.474938,0.0637 -0.04763,0.76728 -0.574984,3.33474 -1.324586,3.95051 -0.749607,0.61578 -0.774779,0.31004 -1.062828,0.99862 -0.288052,0.68859 0.102282,0.64414 -0.418696,0.89634 -0.520977,0.25221 -0.813331,0.14084 -0.853482,0.55045 -0.04015,0.40962 0.167608,0.54026 -0.301432,0.82513 -0.46904,0.28486 -0.44817,-0.20935 -0.56702,0.44068 -0.118854,0.65003 -1.380832,3.1179 -1.570903,3.65067 -0.190066,0.53277 -0.334092,0.87706 -0.699257,1.22725 -0.365162,0.35018 -0.592193,0.13494 -0.711046,0.78497 -0.118851,0.65003 -0.01498,0.71535 -0.451358,0.94828 -0.436375,0.23292 -0.49421,-0.0209 -0.553638,0.30414 -0.05943,0.32501 0.367874,1.02858 -0.445458,1.16941 -0.813332,0.14084 -1.259906,-0.64731 -1.33431,0.39305 -0.0744,1.04036 0.03537,1.32682 -0.45295,1.52709 -0.488315,0.20026 -0.584706,-0.22273 -0.670896,0.37536 -0.08619,0.59809 -0.06102,0.90382 -0.71264,1.36378 -0.651624,0.45996 -0.109773,-0.28646 -0.979821,1.55816 -0.87005,1.84461 -1.127035,3.06007 -2.013175,3.66246 -0.88614,0.60239 -1.222946,0.10069 -0.978228,0.97935 0.244718,0.87865 0.302548,1.13244 -0.343175,1.81354 -0.645726,0.6811 -0.274667,0.55205 -0.699257,1.22725 -0.42459,0.6752 -0.676793,0.15422 -0.822412,1.07733 -0.145619,0.9231 0.01019,1.02108 -0.335688,1.45587 -0.345887,0.43478 -1.430062,4.464 -1.254966,4.64658 0.175091,0.18258 0.232923,0.43638 0.258098,0.74212 0.02516,0.30574 0.356082,0.5863 0.356082,0.5863 0,0 0.07599,-1.61918 0.383323,-2.22316 0.307332,-0.60399 0.519388,0.32661 0.705152,-1.00611 0.185769,-1.33272 0.224324,-1.16352 0.714234,-1.9426 0.489911,-0.77908 -0.175093,-0.18258 0.31641,-1.54047 0.491506,-1.35789 0.18577,-1.33272 0.681575,-1.89066 0.495805,-0.55794 0.572915,-0.21954 0.789752,-1.02539 0.216834,-0.80584 -0.134948,-0.59219 0.276259,-1.13085 0.411205,-0.53867 0.696072,-0.0696 0.822413,-1.07733 0.126341,-1.0077 0.741,-2.21567 1.374936,-3.33904 0.633937,-1.12337 1.228836,0.12045 1.330008,-1.19299 0.101166,-1.31344 0.0032,-1.15763 0.687469,-1.66952 0.684282,-0.5119 0.553638,-0.30415 0.730322,-0.70038 0.176689,-0.39623 -0.179393,-0.98253 0.478123,-1.22135 0.657516,-0.23882 1.340205,-0.17191 1.536166,-0.48354 0.195966,-0.31163 0.107066,-1.0923 0.608766,-1.42911 0.501698,-0.3368 1.114767,-0.96595 1.31073,-1.27759 0.195964,-0.31163 1.142008,-3.77542 1.918378,-4.66427 0.776369,-0.88885 1.232027,-1.03718 1.408713,-1.43341 0.176683,-0.39623 -0.298249,-0.3325 0.47063,-0.86368 0.768882,-0.53117 0.715351,0.015 0.951463,-0.70627 0.236114,-0.72124 0.564314,-1.81943 1.106162,-2.56586 0.541851,-0.74641 0.184174,-0.7539 0.674084,-1.53298 0.48991,-0.77907 0.326607,-0.51938 1.291452,-1.36219 0.964846,-0.8428 0.580404,-0.57722 0.902711,-1.89655 0.322305,-1.31934 0.193254,-1.6904 0.616252,-1.78678 0.422994,-0.0964 0.338397,-0.0771 0.418692,-0.89634 0.0803,-0.81923 0.497398,-1.13676 0.497398,-1.13676 0,0 2.368779,-0.53977 2.268088,-1.76272 -0.100687,-1.22294 -0.329313,-0.85937 0.153107,-1.28078 0.482423,-0.4214 0.742117,-0.25809 0.939673,-1.14854 0.197557,-0.89044 -0.531175,-0.76888 0.36086,-1.15014 0.892037,-0.38125 0.310039,0.77478 1.374458,-0.80265 1.064421,-1.57744 0.985715,-1.33702 1.149021,-1.59672 0.163301,-0.25969 -0.03537,-1.32682 -0.03537,-1.32682 z"
       style="fill:#80ff80;fill-rule:evenodd;stroke:none;stroke-width:0.26458332px;stroke-linecap:butt;stroke-linejoin:miter;stroke-opacity:1" />
    <path
       style="fill:#80ff80;fill-rule:evenodd;stroke:none;stroke-width:0.26458332px;stroke-linecap:butt;stroke-linejoin:miter;stroke-opacity:1"
       d="m 48.884457,117.47761 c 0,0 0.0118,0.44227 -0.03426,0.63075 -0.04605,0.18848 -1.464953,0.6008 -1.030169,0.94669 0.434788,0.34588 0.831017,0.52257 0.596496,0.665 -0.234517,0.14243 -0.721241,-0.23611 -0.638234,0.32342 0.083,0.55953 0.290756,0.69018 0.127453,0.94987 -0.163301,0.25969 -0.547743,0.52528 -0.547743,0.52528 l 0.05624,0.83261 c 0,0 -0.345887,0.43478 -0.580406,0.57722 -0.234521,0.14243 -0.513487,-0.10547 -0.345884,0.43478 0.167605,0.54026 0.811739,0.43797 0.186886,0.62486 -0.624859,0.18688 -1.000218,-0.48402 -1.001813,0.0948 -0.0016,0.57881 0.973452,0.75709 0.400536,0.97663 -0.572918,0.21954 -0.761394,0.1735 -0.761394,0.1735 0,0 0.344289,0.14402 0.08301,0.55953 -0.261286,0.41551 -0.63075,-0.0343 -0.932182,0.79087 -0.301435,0.82512 0.723953,1.61488 -0.435264,2.1905 -1.159216,0.57563 -2.456566,1.71668 -2.529374,2.17823 -0.07281,0.46156 0.08301,0.55954 -0.353372,0.79247 -0.43638,0.23292 -0.495808,0.55794 -0.495808,0.55794 0,0 0.819229,0.0803 0.148331,0.45565 -0.670899,0.37536 -2.756404,1.96299 -2.986623,2.90538 -0.230219,0.94238 0.05624,0.8326 -0.439565,1.39055 -0.495806,0.55794 -0.624856,0.18688 -0.626449,0.76569 -0.0016,0.57882 0.225438,0.79405 -0.126341,1.00771 -0.351782,0.21364 -0.559533,0.083 -0.613066,0.62915 -0.05353,0.54615 0.382846,0.31323 -0.151514,0.70197 -0.53436,0.38874 -2.211845,2.59533 -2.609667,2.99746 -0.397825,0.40213 -0.645729,0.68109 -0.803138,1.16193 -0.157408,0.48083 0.134946,0.59219 -0.399415,0.98093 -0.53436,0.38875 -0.638238,0.32342 -0.659109,0.81764 -0.02088,0.49421 0.232926,0.43638 -0.03425,0.63074 -0.267181,0.19438 -1.086405,0.11408 -0.86097,0.90813 0.225441,0.79406 1.129266,0.85508 0.223848,1.37287 -0.90542,0.51779 -1.211156,0.54297 -1.180089,1.06984 0.03107,0.52687 0.454065,0.43048 -0.04764,0.76729 -0.5017,0.3368 -0.788159,0.44657 -0.920392,1.23314 -0.132236,0.78656 0.305734,-0.0252 -0.979824,1.55816 -1.285557,1.58332 -2.269678,2.34153 -2.428679,3.40117 -0.159004,1.05964 0.439084,1.14583 -0.458846,1.30595 -0.897929,0.16012 -1.151726,0.21795 -1.485823,1.09501 -0.334095,0.87706 -0.378545,0.48673 -0.803132,1.16193 -0.42459,0.6752 0.154223,0.67679 -0.614659,1.20797 -0.768879,0.53117 -0.924698,0.43319 -1.166704,0.9333 -0.242009,0.50011 -3.403725,3.2229 -3.644141,3.14419 -0.240414,-0.0787 -0.494212,-0.0209 -0.780672,0.0889 -0.286456,0.10978 -0.682688,-0.0669 -0.682688,-0.0669 0,0 1.426398,-0.77 1.837603,-1.30866 0.411207,-0.53866 -0.519383,-0.32661 0.601276,-1.07143 1.120661,-0.74483 0.951463,-0.70627 1.441373,-1.48535 0.489911,-0.77908 0.240416,0.0787 1.251305,-0.95258 1.010888,-1.03128 1.120661,-0.74482 1.40871,-1.43341 0.288052,-0.68858 -0.05034,-0.61147 0.582002,-1.15603 0.632341,-0.54455 0.592193,-0.13494 0.899522,-0.73892 0.30733,-0.60399 -0.238823,-0.65752 0.614659,-1.20797 0.85348,-0.55046 1.675892,-1.62778 2.413704,-2.68583 0.737814,-1.05805 -0.640945,-1.05534 0.498993,-1.71557 1.139936,-0.66022 1.041953,-0.50441 1.206852,-1.34291 0.164899,-0.8385 0.03426,-0.63075 0.314817,-0.96166 0.280562,-0.33091 0.96325,-0.26399 0.893631,-0.96007 -0.06963,-0.69607 -0.425707,-1.28237 -0.229743,-1.594 0.195963,-0.31163 0.938077,-0.56973 1.02427,-1.16782 0.08619,-0.59809 0.387626,-1.42321 0.583589,-1.73484 0.195967,-0.31163 2.907919,-2.66496 3.37266,-3.74978 0.464735,-1.08481 0.401008,-1.55974 0.681572,-1.89065 0.280561,-0.33091 0.428892,0.12474 0.574508,-0.79836 0.145619,-0.9231 -0.323419,-0.63824 0.224325,-1.16352 0.547743,-0.52528 1.39533,-1.29687 1.8333,-2.10861 0.437973,-0.81173 0.599683,-0.49262 1.089594,-1.27169 0.489911,-0.77908 0.326605,-0.51939 0.66819,-1.75413 0.341582,-1.23473 0.268774,-0.77318 1.318217,-1.63526 1.049444,-0.86208 1.439781,-0.90653 1.343391,-1.32953 -0.09639,-0.423 -0.07711,-0.3384 0.626448,-0.7657 0.703559,-0.4273 0.80903,-0.94079 0.80903,-0.94079 0,0 -0.539779,-2.36877 0.606055,-2.80786 1.145833,-0.43909 0.917209,-0.0755 1.088001,-0.69289 0.170788,-0.61737 -0.0889,-0.78067 0.628038,-1.3445 0.716942,-0.56384 0.923105,0.14561 0.880248,-0.82354 -0.04286,-0.96914 -0.832609,0.0562 0.127934,-1.58651 0.960541,-1.64275 0.777962,-1.46766 0.941266,-1.72735 0.163301,-0.2597 1.211156,-0.54297 1.211156,-0.54297 z"
       id="path4395"
       inkscape:connector-curvature="0" />
    <path
       sodipodi:nodetypes="ccssc"
       inkscape:connector-curvature="0"
       id="path4397"
       d="m 46.624098,113.43194 c -0.30136,9.40473 -24.933349,43.24212 -32.245115,51.93441 5.131353,1.75537 10.860019,-1.66719 14.741522,-7.86584 4.445635,-7.09954 14.512132,-24.63754 16.321538,-27.56861 3.789939,-6.13935 5.550903,-12.51115 1.182055,-16.49996 z"
       style="fill:#005100;fill-opacity:0.48453608;fill-rule:evenodd;stroke:none;stroke-width:0.26458332px;stroke-linecap:butt;stroke-linejoin:miter;stroke-opacity:1" />
  </g>
</svg>
